<mxfile host="app.diagrams.net" agent="Mozilla/5.0 (Windows NT 10.0; Win64; x64) AppleWebKit/537.36 (KHTML, like Gecko) Chrome/128.0.0.0 Safari/537.36" version="24.7.8">
  <diagram name="Page-1" id="LKC3XCfMebOIXXAvYDLN">
    <mxGraphModel dx="1434" dy="772" grid="1" gridSize="10" guides="1" tooltips="1" connect="1" arrows="1" fold="1" page="1" pageScale="1" pageWidth="827" pageHeight="1169" math="0" shadow="0">
      <root>
        <mxCell id="0" />
        <mxCell id="1" parent="0" />
        <mxCell id="nAV7N8kcsuwW0Dx3YQH4-3" value="Pampered Pets - Current" style="swimlane;html=1;childLayout=stackLayout;resizeParent=1;resizeParentMax=0;horizontal=0;startSize=20;horizontalStack=0;whiteSpace=wrap;" parent="1" vertex="1">
          <mxGeometry x="120" y="250" width="1190" height="520" as="geometry" />
        </mxCell>
        <mxCell id="nAV7N8kcsuwW0Dx3YQH4-4" value="Suply Chain" style="swimlane;html=1;startSize=20;horizontal=0;" parent="nAV7N8kcsuwW0Dx3YQH4-3" vertex="1">
          <mxGeometry x="20" width="1170" height="250" as="geometry" />
        </mxCell>
        <mxCell id="nAV7N8kcsuwW0Dx3YQH4-9" value="" style="edgeStyle=orthogonalEdgeStyle;rounded=0;orthogonalLoop=1;jettySize=auto;html=1;" parent="nAV7N8kcsuwW0Dx3YQH4-4" source="nAV7N8kcsuwW0Dx3YQH4-7" target="nAV7N8kcsuwW0Dx3YQH4-8" edge="1">
          <mxGeometry relative="1" as="geometry" />
        </mxCell>
        <mxCell id="nAV7N8kcsuwW0Dx3YQH4-7" value="Supplies Shipped" style="points=[[0.25,0,0],[0.5,0,0],[0.75,0,0],[1,0.25,0],[1,0.5,0],[1,0.75,0],[0.75,1,0],[0.5,1,0],[0.25,1,0],[0,0.75,0],[0,0.5,0],[0,0.25,0]];shape=mxgraph.bpmn.task;whiteSpace=wrap;rectStyle=rounded;size=10;html=1;container=1;expand=0;collapsible=0;taskMarker=abstract;" parent="nAV7N8kcsuwW0Dx3YQH4-4" vertex="1">
          <mxGeometry x="60" y="30" width="120" height="80" as="geometry" />
        </mxCell>
        <mxCell id="nAV7N8kcsuwW0Dx3YQH4-11" style="edgeStyle=orthogonalEdgeStyle;rounded=0;orthogonalLoop=1;jettySize=auto;html=1;exitX=1;exitY=0.5;exitDx=0;exitDy=0;exitPerimeter=0;entryX=0.5;entryY=0;entryDx=0;entryDy=0;" parent="nAV7N8kcsuwW0Dx3YQH4-4" source="nAV7N8kcsuwW0Dx3YQH4-8" target="nAV7N8kcsuwW0Dx3YQH4-10" edge="1">
          <mxGeometry relative="1" as="geometry" />
        </mxCell>
        <mxCell id="nAV7N8kcsuwW0Dx3YQH4-8" value="Supplies Delivered" style="points=[[0.25,0,0],[0.5,0,0],[0.75,0,0],[1,0.25,0],[1,0.5,0],[1,0.75,0],[0.75,1,0],[0.5,1,0],[0.25,1,0],[0,0.75,0],[0,0.5,0],[0,0.25,0]];shape=mxgraph.bpmn.task;whiteSpace=wrap;rectStyle=rounded;size=10;html=1;container=1;expand=0;collapsible=0;taskMarker=abstract;" parent="nAV7N8kcsuwW0Dx3YQH4-4" vertex="1">
          <mxGeometry x="220" y="30" width="120" height="80" as="geometry" />
        </mxCell>
        <mxCell id="nAV7N8kcsuwW0Dx3YQH4-10" value="Stock Update" style="shape=datastore;html=1;labelPosition=center;verticalLabelPosition=bottom;align=center;verticalAlign=top;" parent="nAV7N8kcsuwW0Dx3YQH4-4" vertex="1">
          <mxGeometry x="380" y="90" width="100" height="100" as="geometry" />
        </mxCell>
        <mxCell id="nAV7N8kcsuwW0Dx3YQH4-12" value="Send order" style="points=[[0.25,0,0],[0.5,0,0],[0.75,0,0],[1,0.25,0],[1,0.5,0],[1,0.75,0],[0.75,1,0],[0.5,1,0],[0.25,1,0],[0,0.75,0],[0,0.5,0],[0,0.25,0]];shape=mxgraph.bpmn.task;whiteSpace=wrap;rectStyle=rounded;size=10;html=1;container=1;expand=0;collapsible=0;taskMarker=send;" parent="nAV7N8kcsuwW0Dx3YQH4-4" vertex="1">
          <mxGeometry x="220" y="150" width="120" height="80" as="geometry" />
        </mxCell>
        <mxCell id="nAV7N8kcsuwW0Dx3YQH4-13" style="edgeStyle=orthogonalEdgeStyle;rounded=0;orthogonalLoop=1;jettySize=auto;html=1;exitX=0;exitY=0.5;exitDx=0;exitDy=0;entryX=1;entryY=0.5;entryDx=0;entryDy=0;entryPerimeter=0;" parent="nAV7N8kcsuwW0Dx3YQH4-4" source="nAV7N8kcsuwW0Dx3YQH4-10" target="nAV7N8kcsuwW0Dx3YQH4-12" edge="1">
          <mxGeometry relative="1" as="geometry" />
        </mxCell>
        <mxCell id="nAV7N8kcsuwW0Dx3YQH4-14" value="Recieve Order" style="points=[[0.25,0,0],[0.5,0,0],[0.75,0,0],[1,0.25,0],[1,0.5,0],[1,0.75,0],[0.75,1,0],[0.5,1,0],[0.25,1,0],[0,0.75,0],[0,0.5,0],[0,0.25,0]];shape=mxgraph.bpmn.task;whiteSpace=wrap;rectStyle=rounded;size=10;html=1;container=1;expand=0;collapsible=0;taskMarker=receive;" parent="nAV7N8kcsuwW0Dx3YQH4-4" vertex="1">
          <mxGeometry x="60" y="150" width="120" height="80" as="geometry" />
        </mxCell>
        <mxCell id="nAV7N8kcsuwW0Dx3YQH4-15" style="edgeStyle=orthogonalEdgeStyle;rounded=0;orthogonalLoop=1;jettySize=auto;html=1;exitX=0;exitY=0.5;exitDx=0;exitDy=0;exitPerimeter=0;entryX=1;entryY=0.5;entryDx=0;entryDy=0;entryPerimeter=0;" parent="nAV7N8kcsuwW0Dx3YQH4-4" source="nAV7N8kcsuwW0Dx3YQH4-12" target="nAV7N8kcsuwW0Dx3YQH4-14" edge="1">
          <mxGeometry relative="1" as="geometry" />
        </mxCell>
        <mxCell id="nAV7N8kcsuwW0Dx3YQH4-16" style="edgeStyle=orthogonalEdgeStyle;rounded=0;orthogonalLoop=1;jettySize=auto;html=1;exitX=0.5;exitY=0;exitDx=0;exitDy=0;exitPerimeter=0;entryX=0.5;entryY=1;entryDx=0;entryDy=0;entryPerimeter=0;" parent="nAV7N8kcsuwW0Dx3YQH4-4" source="nAV7N8kcsuwW0Dx3YQH4-14" target="nAV7N8kcsuwW0Dx3YQH4-7" edge="1">
          <mxGeometry relative="1" as="geometry" />
        </mxCell>
        <mxCell id="nAV7N8kcsuwW0Dx3YQH4-5" value="Physical Customer" style="swimlane;html=1;startSize=20;horizontal=0;" parent="nAV7N8kcsuwW0Dx3YQH4-3" vertex="1">
          <mxGeometry x="20" y="250" width="1170" height="120" as="geometry" />
        </mxCell>
        <mxCell id="nAV7N8kcsuwW0Dx3YQH4-19" value="" style="edgeStyle=orthogonalEdgeStyle;rounded=0;orthogonalLoop=1;jettySize=auto;html=1;" parent="nAV7N8kcsuwW0Dx3YQH4-5" source="nAV7N8kcsuwW0Dx3YQH4-17" target="nAV7N8kcsuwW0Dx3YQH4-18" edge="1">
          <mxGeometry relative="1" as="geometry" />
        </mxCell>
        <mxCell id="nAV7N8kcsuwW0Dx3YQH4-17" value="Enters Shop" style="points=[[0.25,0,0],[0.5,0,0],[0.75,0,0],[1,0.25,0],[1,0.5,0],[1,0.75,0],[0.75,1,0],[0.5,1,0],[0.25,1,0],[0,0.75,0],[0,0.5,0],[0,0.25,0]];shape=mxgraph.bpmn.task;whiteSpace=wrap;rectStyle=rounded;size=10;html=1;container=1;expand=0;collapsible=0;taskMarker=user;" parent="nAV7N8kcsuwW0Dx3YQH4-5" vertex="1">
          <mxGeometry x="60" y="20" width="120" height="80" as="geometry" />
        </mxCell>
        <mxCell id="nAV7N8kcsuwW0Dx3YQH4-21" style="edgeStyle=orthogonalEdgeStyle;rounded=0;orthogonalLoop=1;jettySize=auto;html=1;exitX=1;exitY=0.5;exitDx=0;exitDy=0;exitPerimeter=0;" parent="nAV7N8kcsuwW0Dx3YQH4-5" source="nAV7N8kcsuwW0Dx3YQH4-18" target="nAV7N8kcsuwW0Dx3YQH4-20" edge="1">
          <mxGeometry relative="1" as="geometry" />
        </mxCell>
        <mxCell id="nAV7N8kcsuwW0Dx3YQH4-18" value="Selects Product" style="points=[[0.25,0,0],[0.5,0,0],[0.75,0,0],[1,0.25,0],[1,0.5,0],[1,0.75,0],[0.75,1,0],[0.5,1,0],[0.25,1,0],[0,0.75,0],[0,0.5,0],[0,0.25,0]];shape=mxgraph.bpmn.task;whiteSpace=wrap;rectStyle=rounded;size=10;html=1;container=1;expand=0;collapsible=0;taskMarker=user;" parent="nAV7N8kcsuwW0Dx3YQH4-5" vertex="1">
          <mxGeometry x="220" y="20" width="120" height="80" as="geometry" />
        </mxCell>
        <mxCell id="nAV7N8kcsuwW0Dx3YQH4-20" value="Purchase Made" style="points=[[0.25,0,0],[0.5,0,0],[0.75,0,0],[1,0.25,0],[1,0.5,0],[1,0.75,0],[0.75,1,0],[0.5,1,0],[0.25,1,0],[0,0.75,0],[0,0.5,0],[0,0.25,0]];shape=mxgraph.bpmn.task;whiteSpace=wrap;rectStyle=rounded;size=10;html=1;container=1;expand=0;collapsible=0;taskMarker=abstract;bpmnShapeType=transaction;" parent="nAV7N8kcsuwW0Dx3YQH4-5" vertex="1">
          <mxGeometry x="380" y="20" width="120" height="80" as="geometry" />
        </mxCell>
        <mxCell id="nAV7N8kcsuwW0Dx3YQH4-6" value="Online Customer" style="swimlane;html=1;startSize=20;horizontal=0;" parent="nAV7N8kcsuwW0Dx3YQH4-3" vertex="1">
          <mxGeometry x="20" y="370" width="1170" height="150" as="geometry">
            <mxRectangle x="20" y="370" width="1170" height="30" as="alternateBounds" />
          </mxGeometry>
        </mxCell>
        <mxCell id="nAV7N8kcsuwW0Dx3YQH4-23" value="Customer emails order" style="points=[[0.25,0,0],[0.5,0,0],[0.75,0,0],[1,0.25,0],[1,0.5,0],[1,0.75,0],[0.75,1,0],[0.5,1,0],[0.25,1,0],[0,0.75,0],[0,0.5,0],[0,0.25,0]];shape=mxgraph.bpmn.task;whiteSpace=wrap;rectStyle=rounded;size=10;html=1;container=1;expand=0;collapsible=0;taskMarker=send;" parent="nAV7N8kcsuwW0Dx3YQH4-6" vertex="1">
          <mxGeometry x="50" y="20" width="120" height="80" as="geometry" />
        </mxCell>
        <mxCell id="nAV7N8kcsuwW0Dx3YQH4-24" value="Shop receives Order" style="points=[[0.25,0,0],[0.5,0,0],[0.75,0,0],[1,0.25,0],[1,0.5,0],[1,0.75,0],[0.75,1,0],[0.5,1,0],[0.25,1,0],[0,0.75,0],[0,0.5,0],[0,0.25,0]];shape=mxgraph.bpmn.task;whiteSpace=wrap;rectStyle=rounded;size=10;html=1;container=1;expand=0;collapsible=0;taskMarker=receive;" parent="nAV7N8kcsuwW0Dx3YQH4-6" vertex="1">
          <mxGeometry x="220" y="20" width="120" height="80" as="geometry" />
        </mxCell>
        <mxCell id="nAV7N8kcsuwW0Dx3YQH4-25" style="edgeStyle=orthogonalEdgeStyle;rounded=0;orthogonalLoop=1;jettySize=auto;html=1;exitX=1;exitY=0.5;exitDx=0;exitDy=0;exitPerimeter=0;entryX=0;entryY=0.5;entryDx=0;entryDy=0;entryPerimeter=0;" parent="nAV7N8kcsuwW0Dx3YQH4-6" source="nAV7N8kcsuwW0Dx3YQH4-23" target="nAV7N8kcsuwW0Dx3YQH4-24" edge="1">
          <mxGeometry relative="1" as="geometry" />
        </mxCell>
        <mxCell id="nAV7N8kcsuwW0Dx3YQH4-26" value="Order collected by shop staff" style="points=[[0.25,0,0],[0.5,0,0],[0.75,0,0],[1,0.25,0],[1,0.5,0],[1,0.75,0],[0.75,1,0],[0.5,1,0],[0.25,1,0],[0,0.75,0],[0,0.5,0],[0,0.25,0]];shape=mxgraph.bpmn.task;whiteSpace=wrap;rectStyle=rounded;size=10;html=1;container=1;expand=0;collapsible=0;taskMarker=manual;" parent="nAV7N8kcsuwW0Dx3YQH4-6" vertex="1">
          <mxGeometry x="380" y="20" width="120" height="80" as="geometry" />
        </mxCell>
        <mxCell id="nAV7N8kcsuwW0Dx3YQH4-27" style="edgeStyle=orthogonalEdgeStyle;rounded=0;orthogonalLoop=1;jettySize=auto;html=1;exitX=1;exitY=0.5;exitDx=0;exitDy=0;exitPerimeter=0;entryX=0;entryY=0.5;entryDx=0;entryDy=0;entryPerimeter=0;" parent="nAV7N8kcsuwW0Dx3YQH4-6" source="nAV7N8kcsuwW0Dx3YQH4-24" target="nAV7N8kcsuwW0Dx3YQH4-26" edge="1">
          <mxGeometry relative="1" as="geometry" />
        </mxCell>
        <mxCell id="nAV7N8kcsuwW0Dx3YQH4-29" value="Email to customer" style="points=[[0.25,0,0],[0.5,0,0],[0.75,0,0],[1,0.25,0],[1,0.5,0],[1,0.75,0],[0.75,1,0],[0.5,1,0],[0.25,1,0],[0,0.75,0],[0,0.5,0],[0,0.25,0]];shape=mxgraph.bpmn.task;whiteSpace=wrap;rectStyle=rounded;size=10;html=1;container=1;expand=0;collapsible=0;taskMarker=send;" parent="nAV7N8kcsuwW0Dx3YQH4-6" vertex="1">
          <mxGeometry x="540" y="20" width="120" height="80" as="geometry" />
        </mxCell>
        <mxCell id="nAV7N8kcsuwW0Dx3YQH4-30" style="edgeStyle=orthogonalEdgeStyle;rounded=0;orthogonalLoop=1;jettySize=auto;html=1;exitX=1;exitY=0.5;exitDx=0;exitDy=0;exitPerimeter=0;entryX=0;entryY=0.5;entryDx=0;entryDy=0;entryPerimeter=0;" parent="nAV7N8kcsuwW0Dx3YQH4-6" source="nAV7N8kcsuwW0Dx3YQH4-26" target="nAV7N8kcsuwW0Dx3YQH4-29" edge="1">
          <mxGeometry relative="1" as="geometry" />
        </mxCell>
        <mxCell id="nAV7N8kcsuwW0Dx3YQH4-31" value="" style="edgeStyle=orthogonalEdgeStyle;rounded=0;orthogonalLoop=1;jettySize=auto;html=1;" parent="nAV7N8kcsuwW0Dx3YQH4-6" source="nAV7N8kcsuwW0Dx3YQH4-32" target="nAV7N8kcsuwW0Dx3YQH4-34" edge="1">
          <mxGeometry relative="1" as="geometry" />
        </mxCell>
        <mxCell id="nAV7N8kcsuwW0Dx3YQH4-32" value="Enters Shop" style="points=[[0.25,0,0],[0.5,0,0],[0.75,0,0],[1,0.25,0],[1,0.5,0],[1,0.75,0],[0.75,1,0],[0.5,1,0],[0.25,1,0],[0,0.75,0],[0,0.5,0],[0,0.25,0]];shape=mxgraph.bpmn.task;whiteSpace=wrap;rectStyle=rounded;size=10;html=1;container=1;expand=0;collapsible=0;taskMarker=user;" parent="nAV7N8kcsuwW0Dx3YQH4-6" vertex="1">
          <mxGeometry x="700" y="20" width="120" height="80" as="geometry" />
        </mxCell>
        <mxCell id="nAV7N8kcsuwW0Dx3YQH4-33" style="edgeStyle=orthogonalEdgeStyle;rounded=0;orthogonalLoop=1;jettySize=auto;html=1;exitX=1;exitY=0.5;exitDx=0;exitDy=0;exitPerimeter=0;" parent="nAV7N8kcsuwW0Dx3YQH4-6" source="nAV7N8kcsuwW0Dx3YQH4-34" target="nAV7N8kcsuwW0Dx3YQH4-35" edge="1">
          <mxGeometry relative="1" as="geometry" />
        </mxCell>
        <mxCell id="nAV7N8kcsuwW0Dx3YQH4-34" value="Colects Product" style="points=[[0.25,0,0],[0.5,0,0],[0.75,0,0],[1,0.25,0],[1,0.5,0],[1,0.75,0],[0.75,1,0],[0.5,1,0],[0.25,1,0],[0,0.75,0],[0,0.5,0],[0,0.25,0]];shape=mxgraph.bpmn.task;whiteSpace=wrap;rectStyle=rounded;size=10;html=1;container=1;expand=0;collapsible=0;taskMarker=user;" parent="nAV7N8kcsuwW0Dx3YQH4-6" vertex="1">
          <mxGeometry x="860" y="20" width="120" height="80" as="geometry" />
        </mxCell>
        <mxCell id="nAV7N8kcsuwW0Dx3YQH4-35" value="Purchase Made" style="points=[[0.25,0,0],[0.5,0,0],[0.75,0,0],[1,0.25,0],[1,0.5,0],[1,0.75,0],[0.75,1,0],[0.5,1,0],[0.25,1,0],[0,0.75,0],[0,0.5,0],[0,0.25,0]];shape=mxgraph.bpmn.task;whiteSpace=wrap;rectStyle=rounded;size=10;html=1;container=1;expand=0;collapsible=0;taskMarker=abstract;bpmnShapeType=transaction;" parent="nAV7N8kcsuwW0Dx3YQH4-6" vertex="1">
          <mxGeometry x="1020" y="20" width="120" height="80" as="geometry" />
        </mxCell>
        <mxCell id="nAV7N8kcsuwW0Dx3YQH4-36" style="edgeStyle=orthogonalEdgeStyle;rounded=0;orthogonalLoop=1;jettySize=auto;html=1;exitX=1;exitY=0.5;exitDx=0;exitDy=0;exitPerimeter=0;entryX=0;entryY=0.5;entryDx=0;entryDy=0;entryPerimeter=0;" parent="nAV7N8kcsuwW0Dx3YQH4-6" source="nAV7N8kcsuwW0Dx3YQH4-29" target="nAV7N8kcsuwW0Dx3YQH4-32" edge="1">
          <mxGeometry relative="1" as="geometry" />
        </mxCell>
        <mxCell id="nAV7N8kcsuwW0Dx3YQH4-22" style="edgeStyle=orthogonalEdgeStyle;rounded=0;orthogonalLoop=1;jettySize=auto;html=1;exitX=0.5;exitY=0;exitDx=0;exitDy=0;exitPerimeter=0;entryX=0.5;entryY=1;entryDx=0;entryDy=0;" parent="nAV7N8kcsuwW0Dx3YQH4-3" source="nAV7N8kcsuwW0Dx3YQH4-20" target="nAV7N8kcsuwW0Dx3YQH4-10" edge="1">
          <mxGeometry relative="1" as="geometry" />
        </mxCell>
        <mxCell id="nAV7N8kcsuwW0Dx3YQH4-28" style="edgeStyle=orthogonalEdgeStyle;rounded=0;orthogonalLoop=1;jettySize=auto;html=1;exitX=1;exitY=0.25;exitDx=0;exitDy=0;exitPerimeter=0;entryX=1;entryY=0.5;entryDx=0;entryDy=0;" parent="nAV7N8kcsuwW0Dx3YQH4-3" source="nAV7N8kcsuwW0Dx3YQH4-26" target="nAV7N8kcsuwW0Dx3YQH4-10" edge="1">
          <mxGeometry relative="1" as="geometry" />
        </mxCell>
        <mxCell id="nAV7N8kcsuwW0Dx3YQH4-37" style="edgeStyle=orthogonalEdgeStyle;rounded=0;orthogonalLoop=1;jettySize=auto;html=1;exitX=0.5;exitY=0;exitDx=0;exitDy=0;exitPerimeter=0;entryX=1;entryY=0.3;entryDx=0;entryDy=0;" parent="nAV7N8kcsuwW0Dx3YQH4-3" source="nAV7N8kcsuwW0Dx3YQH4-35" target="nAV7N8kcsuwW0Dx3YQH4-10" edge="1">
          <mxGeometry relative="1" as="geometry" />
        </mxCell>
      </root>
    </mxGraphModel>
  </diagram>
</mxfile>
